<svg width="0" height="0" class="hidden">
  <symbol xmlns="http://www.w3.org/2000/svg" viewBox="0 0 640 640" id="blog-solid-full">
    <path d="M288 88C288 74.7 298.7 64 312 64C457.8 64 576 182.2 576 328C576 341.3 565.3 352 552 352C538.7 352 528 341.3 528 328C528 208.7 431.3 112 312 112C298.7 112 288 101.3 288 88zM144 160C170.5 160 192 181.5 192 208L192 432C192 458.5 213.5 480 240 480C266.5 480 288 458.5 288 432C288 405.5 266.5 384 240 384C231.2 384 224 376.8 224 368L224 304C224 295.2 231.2 288 240 288C319.5 288 384 352.5 384 432C384 511.5 319.5 576 240 576C160.5 576 96 511.5 96 432L96 208C96 181.5 117.5 160 144 160zM312 160C404.8 160 480 235.2 480 328C480 341.3 469.3 352 456 352C442.7 352 432 341.3 432 328C432 261.7 378.3 208 312 208C298.7 208 288 197.3 288 184C288 170.7 298.7 160 312 160z" fill="currentcolor"></path>
  </symbol>
  <symbol version="1.1" xmlns="http://www.w3.org/2000/svg" viewBox="0 0 512 512" id="code">
    <path d="M0 0 C2.84204836 1.55814055 4.711158 3.50395262 6.78125 5.9765625 C7.52375 6.8428125 8.26625 7.7090625 9.03125 8.6015625 C13.11969302 16.48641689 11.9093801 24.66878891 9.42480469 32.86547852 C9.15019661 33.82885824 8.87558853 34.79223797 8.592659 35.78481102 C7.6473114 39.08461701 6.67479969 42.37582663 5.703125 45.66796875 C4.99361872 48.12572309 4.28608208 50.58404667 3.58026123 53.04286194 C2.16839837 57.95505856 0.74849291 62.86483579 -0.67909789 67.77248448 C-4.11788762 79.59508932 -7.50191654 91.43312258 -10.88085938 103.27294922 C-12.08890362 107.50447274 -13.29715498 111.73593711 -14.50549316 115.96737671 C-14.81223764 117.04160515 -15.11898211 118.11583359 -15.43502188 119.22261441 C-18.95246491 131.53810712 -22.48165894 143.85022825 -26.01171875 156.16210938 C-26.33723001 157.29745833 -26.66274126 158.43280729 -26.99811649 159.60256076 C-28.3220914 164.22040759 -29.64610938 168.83824207 -30.97021818 173.45605052 C-34.63899249 186.25092819 -38.30585845 199.04635265 -41.97265625 211.84179688 C-43.28215522 216.4113443 -44.59166194 220.98088951 -45.90118408 225.5504303 C-46.22005813 226.6631361 -46.53893218 227.7758419 -46.86746907 228.92226607 C-48.71074219 235.35415872 -50.55433191 241.78596047 -52.39838433 248.21762973 C-52.9798115 250.24567728 -53.56114087 252.27375286 -54.14236999 254.30185717 C-55.54276222 259.18808961 -56.94445846 264.07393886 -58.34925461 268.95890713 C-60.84365504 277.63942958 -63.32319586 286.32331653 -65.74699283 295.02385825 C-66.83732612 298.93600611 -67.93498172 302.84608422 -69.03293657 306.75609887 C-69.54696268 308.59541686 -70.05715039 310.43581255 -70.56319761 312.27734172 C-71.25871769 314.80802409 -71.96712995 317.33477326 -72.67828369 319.86109924 C-72.87716139 320.59892155 -73.07603909 321.33674386 -73.28094339 322.09692442 C-75.39063351 329.49224179 -79.06757161 334.45732939 -85.21875 338.9765625 C-91.31319175 341.84276035 -97.54808885 342.13954425 -103.98046875 340.1015625 C-109.85445569 337.43236664 -113.01638242 334.55488021 -116.21875 328.9765625 C-120.07647979 317.40337312 -115.49970876 305.15811284 -112.23120117 293.99047852 C-111.69226488 292.10211391 -111.15484286 290.21331659 -110.61880493 288.3241272 C-109.1592502 283.19648417 -107.67858323 278.07515506 -106.19408584 272.9546864 C-104.61275369 267.48628334 -103.05123197 262.01222559 -101.48738098 256.5388031 C-98.49464311 246.07556075 -95.48438933 235.61744233 -92.46780711 225.16105264 C-89.14464251 213.63901323 -85.84022209 202.11163288 -82.53789878 190.583606 C-78.32011268 175.86035309 -74.09811696 161.13834012 -69.85617065 146.42202759 C-69.53412261 145.30467543 -69.21207457 144.18732327 -68.8802675 143.03611195 C-68.55846974 141.91964154 -68.23667197 140.80317112 -67.90512276 139.65286827 C-67.25623824 137.40155669 -66.60736267 135.15024253 -65.95849609 132.89892578 C-65.63864235 131.78922904 -65.3187886 130.6795323 -64.98924232 129.53620839 C-60.41555258 113.66346322 -55.88331297 97.77937711 -51.37978065 81.88659155 C-49.51101932 75.29649524 -47.6358277 68.70822527 -45.76058584 62.1199705 C-43.99844667 55.92596562 -42.24705749 49.72905383 -40.50370455 43.529737 C-39.43432169 39.73705668 -38.35457319 35.9473863 -37.27189994 32.15848088 C-36.77635473 30.41611236 -36.28515165 28.67250183 -35.798733 26.92756343 C-30.40242731 7.58555886 -30.40242731 7.58555886 -24.0859375 2.13671875 C-23.42851562 1.77449219 -22.77109375 1.41226563 -22.09375 1.0390625 C-21.43117188 0.65878906 -20.76859375 0.27851562 -20.0859375 -0.11328125 C-13.57292703 -3.28803322 -6.56642256 -2.78812387 0 0 Z " fill="currentcolor" transform="translate(309.21875,86.0234375)"></path>
    <path d="M0 0 C1.61648438 -0.04253906 1.61648438 -0.04253906 3.265625 -0.0859375 C12.20510818 1.09663987 17.68568843 6.73136574 23.76464844 12.87207031 C24.62745926 13.72787186 25.49027008 14.5836734 26.37922668 15.46540833 C28.72749474 17.79915567 31.06649191 20.14146059 33.40111446 22.48881245 C35.85557415 24.95345854 38.31984649 27.40826323 40.78253174 29.86468506 C44.91513626 33.99002952 49.03927493 38.12369635 53.15869141 42.26220703 C57.90916101 47.03444219 62.67386833 51.79209697 67.44622588 56.54243588 C71.55658354 60.63459265 75.65903371 64.73455425 79.75507569 68.84104037 C82.19567164 71.28784553 84.63882557 73.73193208 87.08916473 76.16898346 C89.82198169 78.88801111 92.53813613 81.62332301 95.25292969 84.36035156 C96.05819595 85.1575209 96.86346222 85.95469025 97.69313049 86.77601624 C102.88614931 92.04789051 107.00411294 96.98742907 108.28125 104.5 C108.2709375 105.44875 108.260625 106.3975 108.25 107.375 C108.26546875 108.798125 108.26546875 108.798125 108.28125 110.25 C106.79825648 118.97349131 101.30345559 124.39996036 95.25292969 130.38964844 C94.39712814 131.25245926 93.5413266 132.11527008 92.65959167 133.00422668 C90.32584433 135.35249474 87.98353941 137.69149191 85.63618755 140.02611446 C83.17154146 142.48057415 80.71673677 144.94484649 78.26031494 147.40753174 C74.13497048 151.54013626 70.00130365 155.66427493 65.86279297 159.78369141 C61.09055781 164.53416101 56.33290303 169.29886833 51.58256412 174.07122588 C47.49040735 178.18158354 43.39044575 182.28403371 39.28395963 186.38007569 C36.83715447 188.82067164 34.39306792 191.26382557 31.95601654 193.71416473 C29.23698889 196.44698169 26.50167699 199.16313613 23.76464844 201.87792969 C22.56889442 203.08582909 22.56889442 203.08582909 21.34898376 204.31813049 C15.16949241 210.40519047 9.32157847 214.9487272 0.25 214.9375 C-6.76545738 214.70202747 -10.83165077 212.72322925 -15.7734375 207.8828125 C-19.80711013 203.38281934 -21.53822769 199.05846679 -21.625 193.0625 C-21.65335937 192.17949219 -21.68171875 191.29648437 -21.7109375 190.38671875 C-20.51714363 182.58659098 -15.7461109 177.29594655 -10.27832031 171.94921875 C-9.5852327 171.25554703 -8.89214508 170.56187531 -8.17805481 169.84718323 C-5.90410429 167.57600058 -3.6163566 165.31928582 -1.328125 163.0625 C0.25886877 161.48297317 1.84497679 159.90255594 3.43023682 158.32128906 C7.59055145 154.17619479 11.76274024 150.04325763 15.93756104 145.91278076 C20.20132232 141.6900494 24.45368251 137.45587091 28.70703125 133.22265625 C37.04360105 124.92889388 45.3927666 116.64793661 53.75 108.375 C52.45538427 105.5229229 51.09884535 103.4795494 48.87220764 101.28361511 C48.28480301 100.69924179 47.69739838 100.11486847 47.0921936 99.51278687 C46.44954559 98.88361359 45.80689758 98.25444031 45.14477539 97.60620117 C44.46655228 96.93411118 43.78832916 96.26202118 43.08955383 95.56956482 C41.61734658 94.11165609 40.14291119 92.65599469 38.66652107 91.20232201 C36.32876377 88.89935745 33.99817648 86.58936078 31.66954041 84.2771759 C25.04795109 77.7044796 18.41536449 71.14296613 11.77368164 64.59057617 C7.71042908 60.58096269 3.6570304 56.56160292 -0.39050484 52.53612709 C-1.93327195 51.00575911 -3.47982167 49.47919447 -5.03022575 47.95656395 C-7.20118789 45.82414267 -9.35944739 43.67958203 -11.51538086 41.53198242 C-12.15600464 40.90888184 -12.79662842 40.28578125 -13.45666504 39.64379883 C-18.5879904 34.48979696 -21.67631761 29.46324926 -21.6875 21.9375 C-21.48185622 15.68250169 -19.92607245 11.16283418 -15.56640625 6.62109375 C-10.55667951 2.15004731 -6.84863764 0.081145 0 0 Z " fill="currentcolor" transform="translate(383.25,148.625)"></path>
    <path d="M0 0 C6.0307615 3.5293661 10.31985203 8.42294056 12.5625 15.08203125 C12.8984375 17.6953125 12.8984375 17.6953125 12.9375 20.39453125 C12.96585938 21.27753906 12.99421875 22.16054687 13.0234375 23.0703125 C11.82964363 30.87044027 7.0586109 36.1610847 1.59082031 41.5078125 C0.8977327 42.20148422 0.20464508 42.89515594 -0.50944519 43.60984802 C-2.78339571 45.88103067 -5.0711434 48.13774543 -7.359375 50.39453125 C-8.94636877 51.97405808 -10.53247679 53.55447531 -12.11773682 55.13574219 C-16.27805145 59.28083646 -20.45024024 63.41377362 -24.62506104 67.54425049 C-28.88882232 71.76698185 -33.14118251 76.00116034 -37.39453125 80.234375 C-45.73110105 88.52813737 -54.0802666 96.80909464 -62.4375 105.08203125 C-61.14288427 107.93410835 -59.78634535 109.97748185 -57.55970764 112.17341614 C-56.67860069 113.04997612 -56.67860069 113.04997612 -55.7796936 113.94424438 C-55.13704559 114.57341766 -54.49439758 115.20259094 -53.83227539 115.85083008 C-53.15405228 116.52292007 -52.47582916 117.19501007 -51.77705383 117.88746643 C-50.30484658 119.34537516 -48.83041119 120.80103656 -47.35402107 122.25470924 C-45.01626377 124.5576738 -42.68567648 126.86767047 -40.35704041 129.17985535 C-33.73545109 135.75255165 -27.10286449 142.31406512 -20.46118164 148.86645508 C-16.39792908 152.87606856 -12.3445304 156.89542833 -8.29699516 160.92090416 C-6.75422805 162.45127214 -5.20767833 163.97783678 -3.65727425 165.5004673 C-1.48631211 167.63288858 0.67194739 169.77744922 2.82788086 171.92504883 C3.46850464 172.54814941 4.10912842 173.17125 4.76916504 173.81323242 C9.9004904 178.96723429 12.98881761 183.99378199 13 191.51953125 C12.79435622 197.77452956 11.23857245 202.29419707 6.87890625 206.8359375 C1.86917951 211.30698394 -1.83886236 213.37588625 -8.6875 213.45703125 C-9.76515625 213.48539063 -10.8428125 213.51375 -11.953125 213.54296875 C-20.89260818 212.36039138 -26.37318843 206.72566551 -32.45214844 200.58496094 C-33.31495926 199.72915939 -34.17777008 198.87335785 -35.06672668 197.99162292 C-37.41499474 195.65787558 -39.75399191 193.31557066 -42.08861446 190.9682188 C-44.54307415 188.50357271 -47.00734649 186.04876802 -49.47003174 183.59234619 C-53.60263626 179.46700173 -57.72677493 175.3333349 -61.84619141 171.19482422 C-66.59666101 166.42258906 -71.36136833 161.66493428 -76.13372588 156.91459537 C-80.24408354 152.8224386 -84.34653371 148.722477 -88.44257569 144.61599088 C-90.88317164 142.16918572 -93.32632557 139.72509917 -95.77666473 137.28804779 C-98.50948169 134.56902014 -101.22563613 131.83370824 -103.94042969 129.09667969 C-104.74569595 128.29951035 -105.55096222 127.502341 -106.38063049 126.68101501 C-111.57364931 121.40914074 -115.69161294 116.46960218 -116.96875 108.95703125 C-116.9584375 108.00828125 -116.948125 107.05953125 -116.9375 106.08203125 C-116.9478125 105.13328125 -116.958125 104.18453125 -116.96875 103.20703125 C-115.48575648 94.48353994 -109.99095559 89.05707089 -103.94042969 83.06738281 C-103.08462814 82.20457199 -102.2288266 81.34176117 -101.34709167 80.45280457 C-99.01334433 78.10453651 -96.67103941 75.76553934 -94.32368755 73.43091679 C-91.85904146 70.9764571 -89.40423677 68.51218476 -86.94781494 66.04949951 C-82.82247048 61.91689499 -78.68880365 57.79275632 -74.55029297 53.67333984 C-69.77805781 48.92287024 -65.02040303 44.15816292 -60.27006412 39.38580537 C-56.17790735 35.27544771 -52.07794575 31.17299754 -47.97145963 27.07695556 C-45.52465447 24.63635961 -43.08056792 22.19320568 -40.64351654 19.74286652 C-37.92448889 17.01004956 -35.18917699 14.29389512 -32.45214844 11.57910156 C-31.6549791 10.7738353 -30.85780975 9.96856903 -30.03648376 9.13890076 C-21.68921427 0.91648775 -11.92182905 -4.48979139 0 0 Z " fill="currentcolor" transform="translate(137.4375,149.91796875)"></path>
  </symbol>
  <symbol version="1.1" xmlns="http://www.w3.org/2000/svg" viewBox="0 0 512 512" id="email">
    <path d="M0 0 C1.81641864 -0.00345971 3.63283518 -0.00822638 5.44924736 -0.01418173 C10.4240977 -0.02667829 15.39877488 -0.02052743 20.37362576 -0.01122308 C25.74520973 -0.00442744 31.1167642 -0.01491638 36.48834229 -0.02316284 C47.00474652 -0.03649685 57.52108649 -0.0336239 68.03749323 -0.02492492 C76.5850391 -0.01814749 85.13256696 -0.01723192 93.68011475 -0.02049637 C94.89703156 -0.02095607 96.11394838 -0.02141577 97.36774147 -0.0218894 C99.83994882 -0.02284858 102.31215617 -0.02382122 104.78436351 -0.02480717 C127.96172451 -0.03336009 151.1390499 -0.02352845 174.31640506 -0.00740607 C194.20004959 0.00599701 214.08364157 0.00366889 233.96728516 -0.01016235 C257.06218646 -0.02621988 280.15705656 -0.03253613 303.25196266 -0.02332556 C305.71503321 -0.02236992 308.17810376 -0.02142681 310.64117432 -0.02049637 C311.85302584 -0.02003354 313.06487736 -0.01957072 314.31345165 -0.01909386 C322.84990557 -0.0165045 331.38633968 -0.02087383 339.92279053 -0.02793503 C350.32704253 -0.03635212 360.73122664 -0.03406543 371.13547087 -0.0180928 C376.4430156 -0.01021296 381.75044716 -0.00711367 387.05799103 -0.01704025 C391.91863866 -0.02599347 396.77906843 -0.02104383 401.63969636 -0.0051076 C403.39595457 -0.00176247 405.15223127 -0.00344781 406.90847754 -0.01073496 C415.6913378 -0.04437584 423.89153507 -0.02591745 432.16064453 3.38095093 C430.67795876 6.4875976 429.18766435 8.581854 426.71142578 10.99032593 C425.6856543 11.99966187 425.6856543 11.99966187 424.63916016 13.02938843 C423.56698242 14.06966187 423.56698242 14.06966187 422.47314453 15.13095093 C421.07086434 16.49814162 419.67111023 17.86792813 418.27392578 19.24032593 C417.34253784 20.1447644 417.34253784 20.1447644 416.39233398 21.06747437 C414.52804753 23.00008332 412.78185135 24.96780982 411.0339365 27.00357246 C407.17630753 31.42209409 403.10316663 35.58664109 398.95628357 39.73248291 C398.15824328 40.53419989 397.36020299 41.33591686 396.53797966 42.1619283 C393.88127724 44.8295848 391.2210637 47.49371062 388.56079102 50.1578064 C386.64788895 52.07645405 384.73569551 53.99580747 382.82342529 55.91508484 C377.10328114 61.65488742 371.37838336 67.38993713 365.6528624 73.12437552 C362.95315494 75.82847744 360.25393235 78.53306326 357.55464363 81.23758316 C348.57915703 90.23006025 339.60242457 99.22129091 330.62206936 108.20890617 C328.29776004 110.53512514 325.9734561 112.86134947 323.64916992 115.18759155 C322.78271366 116.05477342 322.78271366 116.05477342 321.89875323 116.93947412 C312.52314539 126.3233983 303.1560979 135.71581941 293.79255819 145.11178397 C284.16981997 154.76757208 274.53958785 164.41583398 264.90190941 174.05671036 C259.49434969 179.4664355 254.09013126 184.879409 248.69427299 190.30080795 C244.10431672 194.91244164 239.50762653 199.51722585 234.90195113 204.11316304 C232.55280464 206.45775824 230.20813545 208.80654174 227.86987495 211.16200066 C225.33504516 213.71443191 222.78825328 216.25429156 220.23802185 218.7913208 C219.50153882 219.53877308 218.76505579 220.28622535 218.00625509 221.0563277 C212.47699212 226.51651716 208.3118361 228.52539787 200.38330078 228.74423218 C192.5744379 227.4679154 188.09046857 222.87613043 182.73522949 217.44328308 C181.91339345 216.62557031 181.09155742 215.80785754 180.24481726 214.96536559 C177.97511061 212.70302655 175.71456996 210.43197518 173.45765758 208.1568855 C171.01769129 205.70166566 168.5661548 203.25804576 166.11604309 200.81295776 C161.32110598 196.02424058 156.53683672 191.22500015 151.75601065 186.4221997 C146.18376144 180.82522814 140.6006061 175.23918896 135.01688284 169.65366813 C125.0500873 159.68299714 115.09261523 149.70306766 105.140625 139.71762085 C95.49325232 130.03784233 85.84032806 120.36364966 76.18066406 110.69613647 C75.58607484 110.10106176 74.99148561 109.50598704 74.37887853 108.89287976 C71.98854595 106.50061825 69.59820496 104.10836513 67.20784542 101.71613054 C57.99106691 92.49180684 48.77833121 83.26344591 39.56644663 74.03423515 C36.78706059 71.24962219 34.00752782 68.46515607 31.22762871 65.68105531 C25.38210227 59.82658621 19.53803712 53.97067216 13.69843376 48.11029432 C11.28459216 45.68789544 8.87003151 43.26622668 6.4533329 40.84667778 C3.82858904 38.21793075 1.20693627 35.58613884 -1.41394043 32.95353699 C-2.54931425 31.81843971 -2.54931425 31.81843971 -3.70762491 30.66041118 C-7.73239706 26.61036115 -11.59148668 22.47414802 -15.30256891 18.13398379 C-18.10985137 14.93167936 -21.19525148 12.01932886 -24.27099609 9.07626343 C-25.49615038 7.87999628 -26.67258422 6.63422782 -27.83935547 5.38095093 C-27.83935547 4.72095093 -27.83935547 4.06095093 -27.83935547 3.38095093 C-18.77128059 -0.35509074 -9.61414565 -0.03989175 0 0 Z " fill="currentcolor" transform="translate(53.83935546875,75.61904907226563)"></path>
    <path d="M0 0 C3.35316546 1.58859719 5.53005992 3.30541545 8.13500977 5.97143555 C8.94007462 6.78956223 9.74513947 7.6076889 10.57460022 8.4506073 C11.8699192 9.78023247 11.8699192 9.78023247 13.19140625 11.13671875 C14.56788774 12.53202736 15.94438206 13.92732356 17.32158566 15.32191944 C20.70542992 18.75142889 24.07864057 22.191327 27.44555664 25.63745117 C29.33467264 27.57017441 31.22932987 29.49716284 33.12986755 31.4186554 C34.91286605 33.22210047 36.68771129 35.03365722 38.45277405 36.85466003 C49.36416527 47.85519542 60.93530022 54.78134663 76.625 55.25 C97.6490343 54.98980156 110.07928772 42.11367018 124.0703125 28.02734375 C124.87741669 27.21882462 125.68452087 26.41030548 126.51608276 25.57728577 C129.05477873 23.03306065 131.58994672 20.48535414 134.125 17.9375 C135.8617454 16.19573042 137.5987226 14.45419194 139.3359375 12.71289062 C143.55997002 8.47792328 147.78112388 4.24010384 152 0 C155.91923272 1.59095304 158.55931993 4.28206861 161.48310852 7.23587036 C162.02469972 7.77504715 162.56629093 8.31422394 163.12429398 8.86973941 C164.93831813 10.67812689 166.74510427 12.493576 168.55200195 14.30908203 C169.85114046 15.60714759 171.1507118 16.90478007 172.45068359 18.20201111 C175.9822602 21.72873609 179.50754704 25.26168772 183.03162408 28.79590464 C186.72329705 32.49636186 190.42024184 36.19154532 194.11650085 39.88742065 C200.32807128 46.09992814 206.53575487 52.31629806 212.7409668 58.53515625 C219.9039379 65.71382217 227.07209085 72.88727947 234.24328071 80.05773461 C241.88603432 87.69981104 249.52496695 95.34569818 257.16279578 102.99269629 C259.35837185 105.19039834 261.55465283 107.38739381 263.75109291 109.58423233 C267.21309907 113.04724798 270.67252595 116.51282069 274.13002777 119.98033333 C275.39531565 121.2485263 276.66143268 122.51589267 277.92846489 123.78234291 C289.53519939 135.3857653 289.53519939 135.3857653 294.62193584 141.40562248 C297.35623575 144.56912273 300.41240079 147.41568938 303.43164062 150.3046875 C304.65679491 151.50095465 305.83322875 152.74672311 307 154 C307 154.66 307 155.32 307 156 C297.93192512 159.73604167 288.77479018 159.42084268 279.16064453 159.38095093 C277.34422589 159.38441064 275.52780935 159.3891773 273.71139717 159.39513266 C268.73654683 159.40762921 263.76186965 159.40147836 258.78701878 159.39217401 C253.4154348 159.38537837 248.04388033 159.39586731 242.67230225 159.40411377 C232.15589801 159.41744777 221.63955804 159.41457482 211.1231513 159.40587585 C202.57560544 159.39909842 194.02807757 159.39818284 185.48052979 159.4014473 C184.26361297 159.401907 183.04669615 159.40236669 181.79290307 159.40284032 C179.32069571 159.40379951 176.84848837 159.40477215 174.37628102 159.4057581 C151.19892002 159.41431102 128.02159463 159.40447938 104.84423947 159.388357 C84.96059494 159.37495392 65.07700296 159.37728204 45.19335938 159.39111328 C22.09845807 159.4071708 -0.99641203 159.41348705 -24.09131813 159.40427649 C-26.55438868 159.40332085 -29.01745923 159.40237774 -31.48052979 159.4014473 C-32.6923813 159.40098447 -33.90423282 159.40052164 -35.15280712 159.40004479 C-43.68926103 159.39745543 -52.22569515 159.40182476 -60.762146 159.40888596 C-71.166398 159.41730305 -81.5705821 159.41501635 -91.97482634 159.39904372 C-97.28237107 159.39116389 -102.58980262 159.3880646 -107.8973465 159.39799118 C-112.75799413 159.4069444 -117.6184239 159.40199476 -122.47905183 159.38605852 C-124.23531004 159.3827134 -125.99158673 159.38439874 -127.74783301 159.39168589 C-136.53069327 159.42532677 -144.73089053 159.40686837 -153 156 C-151.61041043 153.10755666 -150.29961931 151.0662374 -147.98828125 148.828125 C-147.39466797 148.24546875 -146.80105469 147.6628125 -146.18945312 147.0625 C-145.57005859 146.464375 -144.95066406 145.86625 -144.3125 145.25 C-140.75706924 141.79768055 -137.26258072 138.36207537 -134.06578064 134.57116699 C-128.76540306 128.4819927 -122.98568442 122.85447226 -117.27172852 117.15820312 C-115.98970912 115.87646622 -114.70791072 114.59450825 -113.42631531 113.31234741 C-109.96626519 109.85201174 -106.50315229 106.39475636 -103.03946042 102.93806648 C-99.41284928 99.31772926 -95.78909157 95.69453816 -92.1650238 92.07165527 C-85.31073126 85.22046417 -78.45389478 78.37182502 -71.59612936 71.52411032 C-63.78518499 63.72436402 -55.97709805 55.92175989 -48.16924393 48.11892033 C-32.11599559 32.07610948 -16.05918136 16.03687162 0 0 Z " fill="currentcolor" transform="translate(179,277)"></path>
    <path d="M0 0 C4.18463995 1.92183742 7.04550766 4.77278386 10.25152588 8.01101685 C10.87564354 8.63342565 11.4997612 9.25583446 12.14279151 9.89710414 C14.23572064 11.98673547 16.32141508 14.08344155 18.40722656 16.18017578 C19.90490493 17.6784182 21.40302364 19.17622054 22.90155029 20.6736145 C26.97179022 24.74327968 31.03582629 28.81909 35.0987978 32.89600992 C39.34466437 37.15436336 43.59618033 41.4070687 47.84710693 45.66036987 C55.89749411 53.71697782 63.94276866 61.7786713 71.98623061 69.84219253 C81.14303109 79.02133339 90.30549871 88.19480838 99.46845293 97.36780572 C118.31862623 116.23889456 137.16165147 135.11710741 156 154 C154.34780319 158.25311631 151.17555064 161.10264776 148.00244141 164.25152588 C147.38144373 164.87564354 146.76044605 165.4997612 146.12063026 166.14279151 C144.03568221 168.23572569 141.94364747 170.32142818 139.8515625 172.40722656 C138.35657894 173.90491965 136.86202131 175.403038 135.36785889 176.90155029 C131.30653967 180.97199872 127.23890553 185.03608157 123.16985321 189.0987978 C118.91835051 193.34524516 114.67172034 197.59656064 110.42431641 201.84710693 C103.2923333 208.98273025 96.15613947 216.11412213 89.01757812 223.24316406 C80.75338721 231.49646202 72.4964374 239.75695174 64.24319649 248.02119851 C57.16575425 255.10770212 50.08444011 262.19031894 42.9998455 269.26967216 C38.76452153 273.50187117 34.5305769 277.7354263 30.30010986 281.97248077 C26.32545372 285.95289333 22.34597712 289.92842146 18.36264801 293.90015411 C16.89753632 295.36261041 15.43414403 296.82679145 13.97255707 298.29277039 C11.98545838 300.28529118 9.99237272 302.2716168 7.99755859 304.25640869 C7.41332438 304.84510435 6.82909016 305.43380002 6.22715187 306.04033494 C2.22830039 310 2.22830039 310 0 310 C-3.42298678 302.1010341 -4.57865865 295.38617308 -4.50793457 286.81762695 C-4.51417453 285.63992642 -4.5204145 284.46222589 -4.52684355 283.24883747 C-4.53995104 280.0110653 -4.53535223 276.77390267 -4.52289867 273.53614664 C-4.51379539 270.03231629 -4.52784388 266.52856422 -4.53881836 263.02474976 C-4.55655225 256.1731111 -4.55278661 249.32164828 -4.5411678 242.47000289 C-4.53211345 236.89873935 -4.5309181 231.3275249 -4.53526306 225.7562561 C-4.53587599 224.96161841 -4.53648893 224.16698071 -4.53712043 223.34826308 C-4.53839941 221.73368699 -4.53969626 220.11911091 -4.5410108 218.50453484 C-4.55240156 203.38469942 -4.53932655 188.2649612 -4.51780933 173.14514172 C-4.4999397 160.18753281 -4.50304424 147.23006726 -4.52148438 134.27246094 C-4.54291771 119.20464692 -4.55130307 104.13691798 -4.53903532 89.06909084 C-4.5377612 87.46064187 -4.53650372 85.85219289 -4.53526306 84.2437439 C-4.53464596 83.45247284 -4.53402886 82.66120178 -4.53339306 81.84595281 C-4.52994754 76.28502718 -4.53575124 70.72415576 -4.54518127 65.16323853 C-4.55643007 58.38108036 -4.55330098 51.59910723 -4.5320583 44.81697011 C-4.52158636 41.36032259 -4.51735942 37.90398296 -4.53065491 34.4473381 C-4.54162143 30.69204482 -4.52783144 26.93761185 -4.50793457 23.18237305 C-4.51685746 22.10132451 -4.52578034 21.02027597 -4.53497362 19.90646839 C-4.4600141 12.58846983 -2.90671359 6.70760156 0 0 Z " fill="currentcolor" transform="translate(4,101)"></path>
    <path d="M0 0 C3.42298678 7.8989659 4.57865865 14.61382692 4.50793457 23.18237305 C4.51417453 24.36007358 4.5204145 25.53777411 4.52684355 26.75116253 C4.53995104 29.9889347 4.53535223 33.22609733 4.52289867 36.46385336 C4.51379539 39.96768371 4.52784388 43.47143578 4.53881836 46.97525024 C4.55655225 53.8268889 4.55278661 60.67835172 4.5411678 67.52999711 C4.53211345 73.10126065 4.5309181 78.6724751 4.53526306 84.2437439 C4.53587599 85.03838159 4.53648893 85.83301929 4.53712043 86.65173692 C4.53839941 88.26631301 4.53969626 89.88088909 4.5410108 91.49546516 C4.55240156 106.61530058 4.53932655 121.7350388 4.51780933 136.85485828 C4.4999397 149.81246719 4.50304424 162.76993274 4.52148438 175.72753906 C4.54291771 190.79535308 4.55130307 205.86308202 4.53903532 220.93090916 C4.5377612 222.53935813 4.53650372 224.14780711 4.53526306 225.7562561 C4.53433741 226.94316269 4.53433741 226.94316269 4.53339306 228.15404719 C4.52994754 233.71497282 4.53575124 239.27584424 4.54518127 244.83676147 C4.55643007 251.61891964 4.55330098 258.40089277 4.5320583 265.18302989 C4.52158636 268.63967741 4.51735942 272.09601704 4.53065491 275.5526619 C4.54162143 279.30795518 4.52783144 283.06238815 4.50793457 286.81762695 C4.51685746 287.89867549 4.52578034 288.97972403 4.53497362 290.09353161 C4.4600141 297.41153017 2.90671359 303.29239844 0 310 C-4.18463995 308.07816258 -7.04550766 305.22721614 -10.25152588 301.98898315 C-10.87564354 301.36657435 -11.4997612 300.74416554 -12.14279151 300.10289586 C-14.23572064 298.01326453 -16.32141508 295.91655845 -18.40722656 293.81982422 C-19.90490493 292.3215818 -21.40302364 290.82377946 -22.90155029 289.3263855 C-26.97179022 285.25672032 -31.03582629 281.18091 -35.0987978 277.10399008 C-39.34466437 272.84563664 -43.59618033 268.5929313 -47.84710693 264.33963013 C-55.89749411 256.28302218 -63.94276866 248.2213287 -71.98623061 240.15780747 C-81.14303109 230.97866661 -90.30549871 221.80519162 -99.46845293 212.63219428 C-118.31862623 193.76110544 -137.16165147 174.88289259 -156 156 C-153.59512922 151.48202344 -150.51361495 148.23188322 -146.92015076 144.66618347 C-146.30238221 144.04529494 -145.68461366 143.42440641 -145.04812485 142.78470308 C-142.98009278 140.70870352 -140.90499727 138.63991432 -138.82983398 136.57104492 C-137.34455541 135.08305602 -135.85970259 133.59464204 -134.37524414 132.10583496 C-130.34496965 128.06644158 -126.30839302 124.03340146 -122.27038836 120.00173736 C-118.04958584 115.78599453 -113.83366077 111.56537865 -109.61695862 107.34553528 C-102.53802945 100.26296759 -95.45489331 93.18462772 -88.36938477 86.10864258 C-80.16708701 77.91724173 -71.97203625 69.71864358 -63.7806887 61.5162937 C-56.75418113 54.48072505 -49.72380214 47.44904282 -42.69014221 40.42062455 C-38.48613244 36.21973935 -34.28350122 32.017499 -30.08434868 27.81175804 C-26.14004776 23.86170098 -22.19092716 19.91652806 -18.23795319 15.97515106 C-16.78412857 14.5239818 -15.33202327 13.07108785 -13.8817234 11.61639595 C-11.91000467 9.63925508 -9.93229975 7.66831021 -7.9528656 5.69889832 C-7.37320445 5.11477572 -6.7935433 4.53065313 -6.19631666 3.92882985 C-2.22830068 0 -2.22830068 0 0 0 Z " fill="currentcolor" transform="translate(508,101)"></path>
  </symbol>
  <symbol version="1.1" xmlns="http://www.w3.org/2000/svg" viewBox="0 0 512 512" id="home">
    <path d="M0 0 C3.89994577 1.69314719 7.07328893 4.24812803 10.375 6.875 C11.29212769 7.59985596 11.29212769 7.59985596 12.2277832 8.33935547 C17.84347618 12.81093808 23.28197863 17.47705167 28.7109375 22.171875 C32.4106364 25.36619717 36.18718867 28.46058157 39.98046875 31.54296875 C43.70786586 34.57599951 47.41676095 37.63109821 51.125 40.6875 C52.59635267 41.8997414 54.06770686 43.11198096 55.5390625 44.32421875 C56.27801758 44.93313965 57.01697266 45.54206055 57.77832031 46.16943359 C61.3516205 49.11367588 64.92584428 52.0567964 68.5 55 C69.91667137 56.16666096 71.33333803 57.33332763 72.75 58.5 C73.801875 59.36625 73.801875 59.36625 74.875 60.25 C77 62 79.125 63.75 81.25 65.5 C81.95157227 66.0777417 82.65314453 66.6554834 83.37597656 67.25073242 C84.78948203 68.41484354 86.20289384 69.5790684 87.61621094 70.7434082 C91.20547571 73.70012504 94.79645822 76.65471204 98.390625 79.60546875 C104.9421619 84.987271 111.47950768 90.38108818 117.9375 95.875 C122.28635274 99.5741605 126.69500943 103.18245094 131.16796875 106.73046875 C137.08000444 111.46825183 142.90232455 116.31685364 148.74462891 121.14013672 C150.96674748 122.97257873 153.19180351 124.80138335 155.41796875 126.62890625 C162.65383901 132.57164339 169.87096664 138.53070177 176.97949219 144.62573242 C179.25914885 146.57215647 181.50041543 148.33361029 184 150 C184.38311005 152.7537632 184.38311005 152.7537632 184.39440918 156.33682251 C184.40050028 156.99442232 184.40659139 157.65202212 184.41286707 158.32954919 C184.42957919 160.54360311 184.42470977 162.75708704 184.41992188 164.97119141 C184.42725785 166.5545512 184.43584269 168.13790564 184.44558716 169.72125244 C184.46787093 174.0314981 184.47073013 178.34155296 184.46883965 182.65184832 C184.46872017 186.24996724 184.4772757 189.84804542 184.48561716 193.44615304 C184.50487894 201.93922716 184.50772627 210.43220299 184.50097656 218.92529297 C184.49434568 227.68107074 184.51715516 236.43642616 184.55429029 245.19211829 C184.58501588 252.70986821 184.59634386 260.22748254 184.59245348 267.74529397 C184.59038753 272.234842 184.59584002 276.72406206 184.62034607 281.21355057 C184.6426557 285.44082418 184.64070074 289.66741437 184.62041855 293.89469147 C184.617015 295.44261839 184.62206941 296.99059165 184.63640213 298.53845596 C184.76963113 313.99929811 184.76963113 313.99929811 179 320 C174.19868207 324.17790383 170.14451364 326.12648826 163.77986145 326.12025452 C162.69872574 326.12162918 161.61759003 326.12300385 160.50369263 326.12442017 C159.31758392 326.12082489 158.13147522 326.11722961 156.90942383 326.11352539 C155.66052872 326.11367142 154.41163361 326.11381744 153.12489319 326.1139679 C149.69953667 326.11339013 146.27424024 326.10837085 142.84889436 326.10139394 C139.26943784 326.09514756 135.68998054 326.09455558 132.11051941 326.09336853 C125.33199544 326.09025901 118.55348758 326.08205072 111.77497071 326.07201904 C102.61537441 326.05875746 93.45577371 326.05335493 84.29617023 326.04751682 C69.86410142 326.03811059 55.4320666 326.01818913 41 326 C41 285.74 41 245.48 41 204 C14.6 204 -11.8 204 -39 204 C-39 244.26 -39 284.52 -39 326 C-70.77670342 326.16121214 -70.77670342 326.16121214 -84.109375 326.1953125 C-93.30933569 326.219032 -102.50914966 326.24689166 -111.70898438 326.30175781 C-118.409682 326.34170042 -125.11026041 326.36745049 -131.81107378 326.37635398 C-135.35722651 326.38155626 -138.90303827 326.39373196 -142.44908142 326.42292023 C-146.41338358 326.45528482 -150.37735602 326.45595464 -154.34179688 326.45410156 C-156.09399536 326.47567322 -156.09399536 326.47567322 -157.8815918 326.49768066 C-165.14202256 326.46098738 -171.04206302 325.68538539 -176.51647186 320.58795547 C-181.03097021 315.51874415 -182.24224405 311.0210392 -182.32798767 304.36056519 C-182.33886888 303.70660236 -182.34975008 303.05263952 -182.36096102 302.37885964 C-182.39460026 300.19513662 -182.41410018 298.01153056 -182.43334961 295.82763672 C-182.45407616 294.25855131 -182.47548111 292.68947473 -182.49751282 291.1204071 C-182.56531215 285.97361769 -182.61092495 280.82674871 -182.65234375 275.6796875 C-182.66320853 274.3640292 -182.66320853 274.3640292 -182.6742928 273.02179193 C-182.74148575 264.74256429 -182.79960551 256.46331212 -182.83782101 248.18389702 C-182.88727703 237.61323585 -182.97997884 227.04492439 -183.13173288 216.47522342 C-183.23495343 209.03214404 -183.28801558 201.58969852 -183.3044911 194.14592755 C-183.31567724 189.70503677 -183.34859432 185.26685442 -183.43562126 180.82674789 C-183.51655359 176.6444309 -183.53494194 172.46631187 -183.50698662 168.28334999 C-183.50736724 166.75586061 -183.52969779 165.22817986 -183.57658768 163.70141029 C-183.90182754 152.50944421 -183.90182754 152.50944421 -180.71385312 148.30294085 C-177.1871702 144.66247828 -173.18388238 141.83386434 -169 139 C-167.71074106 137.99226887 -166.42840264 136.97545737 -165.16015625 135.94140625 C-164.13792969 135.15636719 -163.11570312 134.37132812 -162.0625 133.5625 C-156.58248563 129.31307178 -151.28969436 124.88318639 -146.04589844 120.34667969 C-140.78077556 115.79346075 -135.40800691 111.38248856 -130 107 C-124.09614346 102.20257631 -118.23260624 97.3654553 -112.4375 92.4375 C-107.96273766 88.63440716 -103.4333113 84.91933498 -98.83203125 81.26953125 C-92.91430621 76.52718884 -87.08591133 71.67438043 -81.23779297 66.84667969 C-78.36310537 64.47441948 -75.48603793 62.10505863 -72.60864258 59.73608398 C-71.20075839 58.57694719 -69.79304402 57.4176041 -68.38549805 56.25805664 C-64.79570163 53.30080525 -61.2041216 50.34576399 -57.609375 47.39453125 C-51.0578381 42.012729 -44.52049232 36.61891182 -38.0625 31.125 C-33.72915223 27.43902813 -29.33766694 23.84181269 -24.87890625 20.30859375 C-20.20540177 16.56091241 -15.59384459 12.7380231 -10.97558594 8.92260742 C-7.33916853 5.91975744 -3.69406862 2.93203089 0 0 Z " fill="currentcolor" transform="translate(255,134)"></path>
    <path d="M0 0 C7.01736977 4.87403216 13.36704824 10.61055291 19.77734375 16.2421875 C23.66287928 19.64886469 27.65291897 22.915421 31.66796875 26.16796875 C34.78015666 28.7126922 37.84745499 31.30630006 40.91015625 33.91015625 C44.85661749 37.26467721 48.8265786 40.58237587 52.84765625 43.84765625 C57.79156138 47.87092216 62.63724557 52.00025982 67.46459961 56.16186523 C68.02026611 56.64083252 68.57593262 57.1197998 69.1484375 57.61328125 C69.63352783 58.03254883 70.11861816 58.45181641 70.6184082 58.88378906 C73.19764531 61.08100808 75.80497842 63.24376198 78.41015625 65.41015625 C78.41602249 64.6467392 78.42188873 63.88332214 78.42793274 63.09677124 C78.48593735 55.88751142 78.55805796 48.67859416 78.64587116 41.46964073 C78.69051899 37.76379972 78.72978702 34.05806722 78.7565918 30.35205078 C78.78268114 26.77270892 78.82312228 23.19378589 78.87334251 19.61470413 C78.8899734 18.25208386 78.90151118 16.8893912 78.90777016 15.52668381 C78.91745156 13.61190974 78.94724163 11.6972698 78.9777832 9.78271484 C78.98888626 8.69461517 78.99998932 7.6065155 79.01142883 6.48544312 C79.47691825 2.89523733 80.53237197 0.4937182 82.41015625 -2.58984375 C86.04293972 -5.0116994 87.76984175 -4.85337011 92.09716797 -4.88037109 C92.77232452 -4.88708832 93.44748108 -4.89380554 94.14309692 -4.90072632 C96.37542071 -4.91972644 98.60744413 -4.92363156 100.83984375 -4.92578125 C102.39299646 -4.93220814 103.94614794 -4.93893642 105.4992981 -4.94595337 C108.75590827 -4.95793139 112.01241232 -4.9616337 115.26904297 -4.96044922 C119.43775517 -4.96024608 123.60578527 -4.98754037 127.77433586 -5.02199364 C130.9828706 -5.0442559 134.19124106 -5.04828697 137.39984512 -5.04722977 C138.93641637 -5.04958705 140.47299205 -5.05841785 142.00948715 -5.0738945 C144.16159234 -5.09354088 146.31222544 -5.08772344 148.46435547 -5.07568359 C149.68774628 -5.07853363 150.91113708 -5.08138367 152.17160034 -5.08432007 C156.0201393 -4.49670898 157.66303115 -3.29340432 160.41015625 -0.58984375 C161.70235522 1.99455419 161.53311623 3.84297785 161.53041077 6.73782349 C161.53247276 8.43319244 161.53247276 8.43319244 161.53457642 10.16281128 C161.53098114 11.40861969 161.52738586 12.6544281 161.52368164 13.93798828 C161.52382767 15.24525879 161.52397369 16.5525293 161.52412415 17.89941406 C161.52441175 21.49010386 161.51852091 25.08076045 161.51155019 28.67144251 C161.50531058 32.42173756 161.50471237 36.17203332 161.50352478 39.92233276 C161.50041326 47.02671657 161.49220228 54.13108503 161.48217529 61.23546207 C161.4710086 69.32241414 161.4655023 77.40936692 161.46047986 85.49632478 C161.45001952 102.13427759 161.43242353 118.77221496 161.41015625 135.41015625 C162.00691162 135.68851318 162.60366699 135.96687012 163.21850586 136.25366211 C166.52911367 138.00060977 169.1788152 140.51363478 171.97265625 142.97265625 C173.23221628 144.06739264 174.49264159 145.16113423 175.75390625 146.25390625 C176.37523437 146.79273438 176.9965625 147.3315625 177.63671875 147.88671875 C180.04789784 149.95799595 182.50483534 151.96936634 184.97265625 153.97265625 C189.0172491 157.25591397 193.00565826 160.59669651 196.97265625 163.97265625 C200.74100375 167.17759481 204.53261898 170.33703514 208.41015625 173.41015625 C213.50307909 177.44793847 218.4595729 181.6370945 223.40625 185.8515625 C225.18439313 187.36610574 226.96663489 188.87589461 228.7578125 190.375 C234.16533384 194.91642962 234.16533384 194.91642962 234.71875 198.29296875 C235.03821158 203.84966419 234.09032947 206.80816678 230.5234375 211.0390625 C229.82605469 211.82152344 229.12867188 212.60398437 228.41015625 213.41015625 C227.44289898 214.5422131 226.47827221 215.67652038 225.515625 216.8125 C222.97503582 219.8039532 220.41446526 222.77701297 217.83764648 225.73730469 C216.88847298 226.84962499 215.95793347 227.97812798 215.04711914 229.12207031 C211.79791123 233.20244241 209.6667071 234.67239473 204.41015625 235.41015625 C199.84301679 234.27451001 196.90432093 232.51258758 193.34765625 229.47265625 C192.39761719 228.66957031 191.44757813 227.86648438 190.46875 227.0390625 C189.44921208 226.16276817 188.42968101 225.28646588 187.41015625 224.41015625 C185.79487312 223.03941798 184.17688058 221.67192238 182.55883789 220.30444336 C181.45417016 219.37022784 180.35050045 218.43483102 179.24780273 217.49829102 C175.83133217 214.59841062 172.38581586 211.73918151 168.91015625 208.91015625 C164.30562045 205.16227827 159.76996434 201.34032181 155.24609375 197.49609375 C151.82956085 194.59770802 148.38510787 191.73860525 144.91015625 188.91015625 C140.30562045 185.16227827 135.76996434 181.34032181 131.24609375 177.49609375 C127.82956085 174.59770802 124.38510787 171.73860525 120.91015625 168.91015625 C116.30562045 165.16227827 111.76996434 161.34032181 107.24609375 157.49609375 C103.82956085 154.59770802 100.38510787 151.73860525 96.91015625 148.91015625 C92.30562045 145.16227827 87.76996434 141.34032181 83.24609375 137.49609375 C79.82956085 134.59770802 76.38510787 131.73860525 72.91015625 128.91015625 C68.30562045 125.16227827 63.76996434 121.34032181 59.24609375 117.49609375 C55.82956085 114.59770802 52.38510787 111.73860525 48.91015625 108.91015625 C44.30562045 105.16227827 39.76996434 101.34032181 35.24609375 97.49609375 C31.82956085 94.59770802 28.38510787 91.73860525 24.91015625 88.91015625 C20.30562045 85.16227827 15.76996434 81.34032181 11.24609375 77.49609375 C6.95760118 73.85798868 2.61439352 70.29203779 -1.75390625 66.75 C-3.85665898 65.01508418 -5.92935793 63.26208023 -7.98828125 61.4765625 C-8.56642578 60.97769531 -9.14457031 60.47882813 -9.74023438 59.96484375 C-10.86096323 58.99515309 -11.97713585 58.02016238 -13.08789062 57.0390625 C-16.1017374 54.43739803 -18.79122089 52.63664887 -22.58984375 51.41015625 C-23.40066406 52.09980469 -24.21148437 52.78945312 -25.046875 53.5 C-30.36079903 58.01231019 -35.68274757 62.50940294 -41.08984375 66.91015625 C-45.12967512 70.19839108 -49.1207644 73.53737051 -53.08984375 76.91015625 C-57.93943756 81.03117259 -62.84145181 85.08006979 -67.77734375 89.09765625 C-70.90784041 91.67162017 -74.00156836 94.28584711 -77.08984375 96.91015625 C-81.93943756 101.03117259 -86.84145181 105.08006979 -91.77734375 109.09765625 C-94.90784041 111.67162017 -98.00156836 114.28584711 -101.08984375 116.91015625 C-105.93943756 121.03117259 -110.84145181 125.08006979 -115.77734375 129.09765625 C-118.90784041 131.67162017 -122.00156836 134.28584711 -125.08984375 136.91015625 C-129.93943756 141.03117259 -134.84145181 145.08006979 -139.77734375 149.09765625 C-142.90784041 151.67162017 -146.00156836 154.28584711 -149.08984375 156.91015625 C-153.93943756 161.03117259 -158.84145181 165.08006979 -163.77734375 169.09765625 C-166.90784041 171.67162017 -170.00156836 174.28584711 -173.08984375 176.91015625 C-177.93943756 181.03117259 -182.84145181 185.08006979 -187.77734375 189.09765625 C-190.90784041 191.67162017 -194.00156836 194.28584711 -197.08984375 196.91015625 C-201.93943756 201.03117259 -206.84145181 205.08006979 -211.77734375 209.09765625 C-214.9078478 211.67162625 -218.00129507 214.28616013 -221.08984375 216.91015625 C-225.24007037 220.43021798 -229.39809606 223.93956946 -233.58984375 227.41015625 C-234.43546875 228.11140625 -235.28109375 228.81265625 -236.15234375 229.53515625 C-240.45794878 232.84716012 -244.05837694 235.18438209 -249.58984375 235.41015625 C-255.21550734 233.29364785 -258.24342217 229.84892636 -261.96484375 225.34765625 C-262.52848633 224.68096924 -263.09212891 224.01428223 -263.67285156 223.32739258 C-265.32466236 221.36521721 -266.96038159 219.39091038 -268.58984375 217.41015625 C-269.26225098 216.59514648 -269.26225098 216.59514648 -269.94824219 215.76367188 C-278.115384 205.8227594 -278.115384 205.8227594 -277.98046875 198.7734375 C-276.80339484 191.65214036 -268.9065034 187.0583189 -263.6484375 182.86328125 C-260.41208313 180.26758451 -257.24684747 177.60106598 -254.08984375 174.91015625 C-249.24094145 170.78834005 -244.33821539 166.74022619 -239.40234375 162.72265625 C-236.27184709 160.14869233 -233.17811914 157.53446539 -230.08984375 154.91015625 C-225.24024994 150.78913991 -220.33823569 146.74024271 -215.40234375 142.72265625 C-212.27184709 140.14869233 -209.17811914 137.53446539 -206.08984375 134.91015625 C-201.24024994 130.78913991 -196.33823569 126.74024271 -191.40234375 122.72265625 C-188.27184709 120.14869233 -185.17811914 117.53446539 -182.08984375 114.91015625 C-177.24024994 110.78913991 -172.33823569 106.74024271 -167.40234375 102.72265625 C-164.27184709 100.14869233 -161.17811914 97.53446539 -158.08984375 94.91015625 C-153.24024994 90.78913991 -148.33823569 86.74024271 -143.40234375 82.72265625 C-140.27184709 80.14869233 -137.17811914 77.53446539 -134.08984375 74.91015625 C-129.24024994 70.78913991 -124.33823569 66.74024271 -119.40234375 62.72265625 C-116.27184709 60.14869233 -113.17811914 57.53446539 -110.08984375 54.91015625 C-105.23667776 50.7861044 -100.3317141 46.73350088 -95.390625 42.71484375 C-92.32208588 40.1898255 -89.29944563 37.61530856 -86.27734375 35.03515625 C-81.28081648 30.77424119 -76.16278299 26.70375023 -70.97045898 22.68505859 C-66.4552382 19.16064841 -62.1383916 15.44428772 -57.83984375 11.66015625 C-40.92730889 -3.12161466 -21.36904174 -13.1179487 0 0 Z " fill="currentcolor" transform="translate(277.58984375,57.58984375)"></path>
  </symbol>
  <symbol version="1.1" xmlns="http://www.w3.org/2000/svg" viewBox="0 0 512 512" id="user">
    <path d="M0 0 C8.23244982 5.41253562 16.52310074 9.93231577 25.67919922 13.56469727 C26.30697266 13.81396973 26.93474609 14.06324219 27.58154297 14.32006836 C58.19901115 26.13580127 87.57028325 22.41960762 117.24951172 10.08032227 C126.08461329 5.9501784 134.09619631 0.52616195 142.15893555 -4.92944336 C161.02027525 -17.58344027 161.02027525 -17.58344027 171.42919922 -16.99780273 C172.19087402 -16.97411621 172.95254883 -16.95042969 173.73730469 -16.92602539 C199.00918455 -15.81039629 222.89045385 -5.53168926 240.18847656 13.19897461 C272.65926464 50.49781215 280.79520215 103.8186947 281.67919922 151.56469727 C281.71916016 152.77512695 281.75912109 153.98555664 281.80029297 155.23266602 C282.26184125 177.08833477 278.01971307 201.2972091 263.05419922 218.12719727 C261.61122851 219.62135444 260.15495703 221.10291444 258.67919922 222.56469727 C257.81294922 223.47219727 256.94669922 224.37969727 256.05419922 225.31469727 C255.27044922 226.05719727 254.48669922 226.79969727 253.67919922 227.56469727 C252.96957031 228.24918945 252.96957031 228.24918945 252.24560547 228.94750977 C231.63851551 247.82498786 205.14627484 249.0190901 178.83422852 248.96875 C176.13218085 248.97446024 173.43015786 248.98132791 170.7281189 248.98954773 C164.18085007 249.00664702 157.63367758 249.00759426 151.08639225 249.00233483 C145.75842434 248.99827497 140.43048466 248.9997581 135.10251808 249.00508308 C134.34097238 249.00583151 133.57942668 249.00657993 132.79480383 249.00735103 C131.247161 249.00888269 129.69951817 249.01042103 128.15187535 249.011966 C113.67420426 249.02565914 99.19658736 249.020276 84.71891753 249.00878078 C71.51116405 248.99885342 58.30355076 249.01178615 45.0958189 249.03571498 C31.4921533 249.060173 17.8885528 249.06969734 4.28486568 249.06306225 C-3.33575372 249.05958465 -10.95626544 249.06170476 -18.57686806 249.07931328 C-25.06447634 249.09411954 -31.55190111 249.09456193 -38.03950612 249.07724237 C-41.34118922 249.06879805 -44.64228036 249.06863375 -47.94398689 249.08189392 C-76.92838168 249.18934121 -101.88530341 244.6174179 -123.32080078 223.56469727 C-124.09423828 222.81575195 -124.86767578 222.06680664 -125.66455078 221.29516602 C-139.87660198 206.62073644 -146.42259888 186.16021182 -146.52392578 166.01391602 C-146.53094009 165.09107819 -146.53795441 164.16824036 -146.54518127 163.21743774 C-146.5627085 160.22897479 -146.56904046 157.24070985 -146.57080078 154.25219727 C-146.57147552 153.2333847 -146.57215027 152.21457214 -146.57284546 151.16488647 C-146.55657975 135.73541996 -145.99359049 120.79236085 -143.32080078 105.56469727 C-143.14387695 104.49815918 -142.96695313 103.43162109 -142.78466797 102.33276367 C-140.38688289 88.02680759 -137.2574552 74.21252982 -132.32080078 60.56469727 C-132.08780273 59.91001465 -131.85480469 59.25533203 -131.61474609 58.58081055 C-125.88466031 42.70386623 -118.09853656 28.53137077 -107.32080078 15.56469727 C-106.78841797 14.88020508 -106.25603516 14.19571289 -105.70751953 13.49047852 C-91.93315818 -3.77597444 -68.9257204 -13.71426518 -47.41137695 -16.21923828 C-27.53983089 -18.27299494 -16.22132607 -10.77252972 0 0 Z " fill="currentcolor" transform="translate(188.32080078125,263.435302734375)"></path>
    <path d="M0 0 C8.63343407 7.23490584 16.24072333 14.5746549 23.0625 23.56640625 C23.66707031 24.3553125 24.27164063 25.14421875 24.89453125 25.95703125 C36.3392112 41.5610644 42.65062987 58.57058878 46.0625 77.56640625 C46.248125 78.58992188 46.43375 79.6134375 46.625 80.66796875 C50.40049771 114.31035015 42.71127407 146.56952935 22.0625 173.56640625 C19.19504469 177.03807536 16.18074703 180.31951867 13.0625 183.56640625 C12.21945312 184.47261719 11.37640625 185.37882813 10.5078125 186.3125 C3.90871233 193.20808149 -2.93415447 198.44506846 -10.9375 203.56640625 C-11.76894531 204.12070313 -12.60039062 204.675 -13.45703125 205.24609375 C-31.91503947 217.06166783 -54.52526058 221.98717822 -76.1875 221.87890625 C-77.36481689 221.8739917 -78.54213379 221.86907715 -79.75512695 221.86401367 C-89.12507562 221.73875557 -97.85982578 220.85893497 -106.9375 218.56640625 C-107.9270166 218.31697266 -107.9270166 218.31697266 -108.93652344 218.0625 C-126.97741793 213.36299058 -144.05282057 204.43718855 -157.66796875 191.6796875 C-159.55892527 189.91891731 -161.48255063 188.30072793 -163.5 186.69140625 C-168.31461607 182.59048621 -172.08996359 177.55446238 -175.9375 172.56640625 C-176.535625 171.79554688 -177.13375 171.0246875 -177.75 170.23046875 C-193.33148842 149.09446826 -200.34821723 124.73495197 -200.3125 98.62890625 C-200.31195618 97.95375977 -200.31141235 97.27861328 -200.31085205 96.58300781 C-200.24534074 78.79747375 -197.45674007 62.73844016 -189.9375 46.56640625 C-189.48632812 45.54546875 -189.03515625 44.52453125 -188.5703125 43.47265625 C-178.94738595 22.81326592 -161.94776161 4.84029888 -142.9375 -7.43359375 C-142.05835938 -8.00851563 -141.17921875 -8.5834375 -140.2734375 -9.17578125 C-97.93816684 -35.41665149 -38.54918249 -31.3581053 0 0 Z " fill="currentcolor" transform="translate(328.9375,25.43359375)"></path>
  </symbol>
</svg>