<svg width="0" height="0" class="hidden">
  <symbol version="1.1" xmlns="http://www.w3.org/2000/svg" viewBox="0 0 512 512" id="facebook">
    <path d="M0 0 C1.0892276 -0.00409882 2.1784552 -0.00819763 3.3006897 -0.01242065 C6.8085652 -0.02193572 10.31633227 -0.02195595 13.82421875 -0.01953125 C15.60809494 -0.02012039 15.60809494 -0.02012039 17.42800903 -0.02072144 C56.47262349 -0.00521379 56.47262349 -0.00521379 75.51171875 3.16796875 C75.51171875 30.22796875 75.51171875 57.28796875 75.51171875 85.16796875 C52.38671875 85.60546875 52.38671875 85.60546875 45.17919922 85.73608398 C16.07466435 85.03972407 16.07466435 85.03972407 -8.61328125 98.16796875 C-15.32157151 106.33764508 -16.55654969 117.8205197 -16.69360352 128.02124023 C-16.70363624 128.67628823 -16.71366896 129.33133623 -16.7240057 130.00623417 C-16.75507604 132.10047582 -16.78003007 134.19473662 -16.8046875 136.2890625 C-16.83266418 138.22465027 -16.83266418 138.22465027 -16.86120605 140.19934082 C-16.92930019 145.00131645 -16.98957853 149.80340034 -17.05078125 154.60546875 C-17.19515625 165.35109375 -17.33953125 176.09671875 -17.48828125 187.16796875 C12.21171875 187.16796875 41.91171875 187.16796875 72.51171875 187.16796875 C71.36293692 203.25091436 71.36293692 203.25091436 70.48022461 209.91748047 C70.38098222 210.69231844 70.28173983 211.46715641 70.17949009 212.26547432 C69.86550517 214.71002375 69.54619932 217.1538402 69.2265625 219.59765625 C69.02865408 221.13219671 68.83110362 222.66678339 68.63391113 224.20141602 C67.90999148 229.81582449 67.17921204 235.42934675 66.44921875 241.04296875 C64.81984375 253.62421875 63.19046875 266.20546875 61.51171875 279.16796875 C35.44171875 279.16796875 9.37171875 279.16796875 -17.48828125 279.16796875 C-17.48828125 356.05796875 -17.48828125 432.94796875 -17.48828125 512.16796875 C-48.83828125 512.16796875 -80.18828125 512.16796875 -112.48828125 512.16796875 C-112.48828125 435.27796875 -112.48828125 358.38796875 -112.48828125 279.16796875 C-138.22828125 279.16796875 -163.96828125 279.16796875 -190.48828125 279.16796875 C-190.48828125 248.80796875 -190.48828125 218.44796875 -190.48828125 187.16796875 C-164.74828125 187.16796875 -139.00828125 187.16796875 -112.48828125 187.16796875 C-112.56704354 163.38618332 -112.56704354 163.38618332 -112.66845703 139.60449219 C-112.77594779 102.21640152 -110.70571437 64.45038956 -84.48828125 35.16796875 C-83.6890625 34.27464844 -82.88984375 33.38132813 -82.06640625 32.4609375 C-60.72436714 9.88762691 -30.55352584 0.03575339 0 0 Z " fill="currentColor" transform="translate(313.48828125,-0.16796875)"></path>
  </symbol>
  <symbol version="1.1" xmlns="http://www.w3.org/2000/svg" viewBox="0 0 512 512" id="instagram">
    <path d="M0 0 C1.40025167 -0.00445668 1.40025167 -0.00445668 2.82879126 -0.0090034 C5.93499325 -0.01762631 9.04115641 -0.0191932 12.14736938 -0.02069092 C14.38385092 -0.02532375 16.62033168 -0.03034903 18.85681152 -0.03573608 C24.91934414 -0.04881998 30.98186571 -0.05529757 37.04441023 -0.05974674 C40.83954102 -0.06268483 44.63466884 -0.06679108 48.42979813 -0.07125092 C58.96434812 -0.08335361 69.49889635 -0.09373692 80.03345299 -0.09712601 C80.70640781 -0.09734557 81.37936263 -0.09756514 82.07271001 -0.09779136 C83.08438713 -0.09811878 83.08438713 -0.09811878 84.11650217 -0.09845281 C85.48291103 -0.09889625 86.8493199 -0.09934282 88.21572876 -0.09979248 C88.89349675 -0.10001391 89.57126473 -0.10023534 90.26957114 -0.10046348 C101.22988947 -0.10440399 112.19014101 -0.12183788 123.15043359 -0.145152 C134.43850517 -0.16896682 145.72654459 -0.18107543 157.01464522 -0.18249393 C163.33814517 -0.18353727 169.66155087 -0.18934405 175.98502731 -0.20731354 C181.94244642 -0.2239139 187.89970164 -0.22589219 193.85713577 -0.21717453 C196.02934461 -0.21641043 198.20156269 -0.22066273 200.37374878 -0.23063278 C216.78740784 -0.30147875 233.67701239 0.12553871 249.12637329 6.32794189 C249.90424194 6.62837402 250.6821106 6.92880615 251.48355103 7.23834229 C262.96768362 11.82279575 272.91836776 18.08472867 282.31387329 26.14044189 C282.92488892 26.61868408 283.53590454 27.09692627 284.16543579 27.58966064 C304.20746077 43.55921936 315.43092739 70.06617064 318.88063622 94.78586769 C319.88090807 103.65218422 319.60005221 112.63312342 319.58853149 121.54156494 C319.59288621 123.77878488 319.59807187 126.01600333 319.60401917 128.2532196 C319.61734036 134.29481292 319.61799541 140.3363434 319.61545587 146.37794852 C319.61438122 151.43947878 319.61928221 156.50099657 319.62406129 161.56252414 C319.63576477 174.19661861 319.6349451 186.83067492 319.62850448 199.4647688 C319.62334107 210.39244143 319.63458112 221.32002476 319.6536027 232.24767973 C319.67305965 243.51331501 319.68093306 254.77890941 319.67747945 266.0445655 C319.6756755 272.35121616 319.67821313 278.65778507 319.69219398 284.96442223 C319.70486426 290.90139846 319.70274205 296.83819744 319.6897831 302.77517128 C319.68743747 304.93931771 319.6900786 307.10347697 319.69840622 309.26760864 C319.7568608 325.65542884 319.31847497 342.52924066 313.12637329 357.95294189 C312.82594116 358.73081055 312.52550903 359.5086792 312.2159729 360.31011963 C307.63151944 371.79425222 301.36958652 381.74493636 293.31387329 391.14044189 C292.8356311 391.75145752 292.35738892 392.36247314 291.86465454 392.99200439 C275.89757902 413.03091293 249.39007381 424.25903544 224.67333984 427.70818329 C215.77936482 428.70952136 206.76923632 428.4174682 197.83340454 428.39923096 C195.58807258 428.40194561 193.34274151 428.4055092 191.09741211 428.40985107 C185.03548854 428.41892087 178.97363351 428.41545323 172.91170883 428.4090929 C166.54681981 428.40400479 160.18193639 428.40873214 153.81704712 428.41186523 C142.44832217 428.41572885 131.0796318 428.40954067 119.71091378 428.39934656 C109.42978859 428.39041266 99.1487086 428.3919652 88.86758423 428.40118408 C76.89148492 428.41191799 64.91541299 428.41585475 52.93930721 428.40995955 C46.61327468 428.40685269 40.28727318 428.4063951 33.96124268 428.41303253 C28.01199901 428.4188394 22.06284008 428.41474827 16.1136055 428.40324402 C13.93929815 428.40061523 11.76498358 428.40133179 9.59067917 428.40576935 C-4.57258189 428.43199493 -18.3799136 428.15681983 -32.06112671 424.01544189 C-32.76463257 423.80371338 -33.46813843 423.59198486 -34.19296265 423.37384033 C-61.26460838 414.7848443 -82.92146033 395.77371025 -96.68612671 371.14044189 C-107.16186321 350.21224831 -108.99047571 329.69785469 -108.96078491 306.73931885 C-108.96513963 304.50209891 -108.97032529 302.26488046 -108.97627258 300.02766418 C-108.98959378 293.98607087 -108.99024882 287.94454039 -108.98770928 281.90293527 C-108.98663464 276.84140501 -108.99153563 271.77988722 -108.9963147 266.71835965 C-109.00801819 254.08426518 -109.00719852 241.45020887 -109.0007579 228.81611498 C-108.99559449 217.88844236 -109.00683454 206.96085903 -109.02585611 196.03320406 C-109.04531307 184.76756878 -109.05318648 173.50197438 -109.04973286 162.23631829 C-109.04792892 155.92966763 -109.05046655 149.62309872 -109.0644474 143.31646156 C-109.07711768 137.37948533 -109.07499547 131.44268635 -109.06203651 125.50571251 C-109.05969088 123.34156608 -109.06233201 121.17740682 -109.07065964 119.01327515 C-109.12911422 102.62545495 -108.69072839 85.75164313 -102.49862671 70.32794189 C-102.19819458 69.55007324 -101.89776245 68.77220459 -101.58822632 67.97076416 C-97.00534523 56.4905704 -90.75010751 46.52368336 -82.68612671 37.14044189 C-82.16921265 36.47915283 -81.65229858 35.81786377 -81.11972046 35.13653564 C-64.73227373 14.80624459 -37.67179734 3.12489215 -12.19627166 0.35669661 C-8.12980942 0.00636161 -4.07930046 -0.0041305 0 0 Z M203.01699829 86.12481689 C199.17893147 90.66711616 198.00596504 95.77109467 198.25137329 101.64044189 C199.22020668 107.58887054 202.37009385 112.88126233 207.16152954 116.55841064 C212.83946536 119.89766377 217.85502418 120.87440202 224.31387329 120.14044189 C230.52551124 118.27244932 234.75996808 114.48299019 238.31387329 109.14044189 C240.87616641 103.66645205 241.39029787 98.28802268 239.43887329 92.58184814 C236.84421881 86.8377611 234.03612842 82.93446412 228.31387329 80.14044189 C218.26717756 76.56449935 210.59138036 79.02756126 203.01699829 86.12481689 Z M23.93740845 145.26690674 C4.35190631 167.86828169 -2.38373588 196.84165042 -0.68612671 226.14044189 C2.38610079 254.10520536 17.26387398 278.89930358 38.31387329 297.14044189 C61.44265847 315.59108458 90.77628724 323.05587873 120.04727173 319.84014893 C148.43112881 315.55692559 173.79778368 300.00854692 191.23477173 277.24395752 C207.88650128 254.51954633 214.69541246 225.64146829 210.63027954 197.78106689 C205.74085616 169.53046783 190.29665004 143.6376902 166.74697876 126.96002197 C120.30883976 95.75276829 61.40516822 104.37254418 23.93740845 145.26690674 Z " fill="currentColor" transform="translate(150.68612670898438,41.85955810546875)"></path>
    <path d="M0 0 C14.66593153 10.19568513 25.60840641 23.74932626 29.74780273 41.46484375 C31.86603529 54.29763126 31.44584138 68.79991362 26.125 80.75 C25.76277344 81.62269531 25.40054688 82.49539063 25.02734375 83.39453125 C17.33536706 100.36902897 3.07751411 111.05081733 -13.734375 117.91796875 C-30.02500275 122.93228047 -49.3872321 120.84818754 -64.375 113.25 C-80.79373216 104.34772371 -91.48385123 89.95575147 -96.98828125 72.1484375 C-100.09059644 59.05712927 -99.35177869 43.05030624 -93.875 30.75 C-93.51277344 29.87730469 -93.15054688 29.00460938 -92.77734375 28.10546875 C-85.8549626 12.82929883 -73.23462165 1.78063924 -57.87109375 -4.47265625 C-38.93392049 -11.50790437 -17.48941603 -10.43527048 0 0 Z " fill="currentColor" transform="translate(289.875,200.25)"></path>
  </symbol>
  <symbol version="1.1" xmlns="http://www.w3.org/2000/svg" viewBox="0 0 512 512" id="youtube">
    <path d="M0 0 C2.46408107 -0.00135993 4.92816194 -0.00314315 7.39224243 -0.00531006 C13.31835744 -0.00934967 19.24446073 -0.00882365 25.17057538 -0.00589742 C29.99810721 -0.00361483 34.82563551 -0.00334304 39.65316772 -0.00442123 C40.69403606 -0.00465108 40.69403606 -0.00465108 41.75593203 -0.00488558 C43.16674113 -0.00520539 44.57755023 -0.0055296 45.98835933 -0.00585817 C59.13720487 -0.00869206 72.28604338 -0.00545903 85.43488777 -0.0000578 C96.65353546 0.00440832 107.8721728 0.00363179 119.09082031 -0.00097656 C132.2009781 -0.00635958 145.31112975 -0.00841756 158.42128849 -0.0053643 C159.82615725 -0.00504584 161.23102601 -0.00473146 162.63589478 -0.00442123 C163.67202849 -0.00418982 163.67202849 -0.00418982 164.72909421 -0.00395373 C169.53622506 -0.0030997 174.34335194 -0.0045271 179.15048218 -0.00690079 C185.65145786 -0.01004112 192.1524188 -0.00772348 198.65339279 -0.00200653 C201.01617781 -0.00070251 203.37896449 -0.00103198 205.74174881 -0.0032692 C226.52359159 -0.02110785 247.48220379 -0.02825715 268.14453125 2.44189453 C269.81866089 2.63755005 269.81866089 2.63755005 271.52661133 2.8371582 C296.41914046 5.90320017 322.28340241 12.43194686 339.109375 32.46923828 C346.06085819 41.85450115 350.11108086 51.95295889 352.89453125 63.19189453 C353.09320801 63.9747583 353.29188477 64.75762207 353.49658203 65.56420898 C358.16864484 85.85985802 357.45898271 106.92343982 357.44611382 127.60970736 C357.44502928 131.07281496 357.44996492 134.53590482 357.45471925 137.99900854 C357.46574337 146.1891317 357.46629283 154.37920898 357.46020508 162.56933594 C357.45417756 170.93989835 357.46646174 179.31029215 357.48777515 187.68082583 C357.50555419 194.93763705 357.51136701 202.19439542 357.5081374 209.45122755 C357.5063494 213.75432206 357.50870505 218.05729642 357.52285194 222.36037064 C357.63257696 258.927624 357.0700139 297.62576623 334.14453125 328.12939453 C333.72171875 328.71591797 333.29890625 329.30244141 332.86328125 329.90673828 C316.27592844 351.17133883 287.30370017 356.95388965 262.14453125 360.12939453 C254.97423198 360.95608597 247.81948648 361.40745427 240.60842896 361.68380737 C239.52242877 361.72593475 238.43642859 361.76806213 237.31751931 361.8114661 C225.45210645 362.23787312 213.59383549 362.2701775 201.72216797 362.25878906 C199.29277521 362.26014882 196.86338265 362.26193194 194.43399048 362.26409912 C188.58962441 362.26814006 182.74527289 362.26761208 176.90090643 362.26468648 C172.14149805 362.26240496 167.38209325 362.26213165 162.62268448 362.2632103 C161.93887204 362.26336353 161.25505961 362.26351676 160.55052558 362.26367464 C159.16032575 362.26399444 157.77012593 362.26431866 156.3799261 362.26464723 C143.42193304 362.26748145 130.46394712 362.26424733 117.50595523 362.25884686 C106.44325696 362.25437869 95.38056918 362.25515889 84.31787109 362.25976562 C71.39526133 362.26514453 58.47265777 362.26720906 45.55004704 362.26415336 C44.16628019 362.26383489 42.78251334 362.26352052 41.39874649 362.2632103 C40.71832999 362.26305602 40.0379135 362.26290175 39.33687832 362.2627428 C34.59497458 362.26188769 29.85307485 362.2633185 25.11117172 362.26568985 C18.70378536 362.26860793 12.29641855 362.26652161 5.88903427 362.26079559 C3.55724113 362.259489 1.22544631 362.25982566 -1.10634613 362.26205826 C-95.48132886 362.34399216 -95.48132886 362.34399216 -126.30859375 331.74658203 C-127.1490625 330.88291016 -127.98953125 330.01923828 -128.85546875 329.12939453 C-129.86867187 328.11232422 -129.86867187 328.11232422 -130.90234375 327.07470703 C-156.89161126 299.36048814 -155.17823663 254.97719423 -155.15705132 219.64203548 C-155.15596857 216.05691441 -155.16089787 212.47181055 -155.16565675 208.88669324 C-155.17668734 200.41240433 -155.17722615 191.93815977 -155.17114258 183.46386719 C-155.16510999 174.78936841 -155.17741062 166.11503214 -155.19871265 157.44056106 C-155.21646058 149.93074077 -155.2223094 142.42097157 -155.2190749 134.91113114 C-155.21728257 130.45330002 -155.21968863 125.9955848 -155.23378944 121.53777313 C-155.43627127 51.47918185 -155.43627127 51.47918185 -133.21875 28.40283203 C-108.69574402 4.81210561 -72.17108895 1.78362932 -39.72143555 0.57498169 C-38.59829043 0.53285431 -37.47514532 0.49072693 -36.31796551 0.44732296 C-24.2114881 0.02593597 -12.11248439 -0.01146877 0 0 Z M44.14453125 116.12939453 C42.91992772 118.5786016 43.010641 120.17740967 42.99736023 122.91642761 C42.99020493 123.92717346 42.98304962 124.93791931 42.97567749 125.97929382 C42.97298859 127.09254532 42.97029968 128.20579681 42.9675293 129.3527832 C42.9609581 130.52201324 42.9543869 131.69124329 42.94761658 132.89590454 C42.92784605 136.77971744 42.91621119 140.66351685 42.90625 144.54736328 C42.90220223 145.88510979 42.8980853 147.2228561 42.89389992 148.56060219 C42.87484395 154.84770204 42.86061572 161.13479014 42.85228795 167.42191333 C42.84252392 174.6733762 42.81622835 181.92453313 42.77578706 189.17588824 C42.74558876 194.78363747 42.73081544 200.39129922 42.72750694 205.99912816 C42.7251599 209.34686322 42.71426493 212.6940127 42.69104576 216.04170799 C42.6667241 219.78106438 42.66760735 223.51962209 42.67456055 227.2590332 C42.66175049 228.36216354 42.64894043 229.46529388 42.63574219 230.60185242 C42.67914614 237.00788614 43.30563644 240.93098837 47.14453125 246.12939453 C51.31600482 249.65197221 54.67900253 251.03675845 60.14453125 251.12939453 C66.40888026 249.59777438 72.01876798 246.83152404 77.64453125 243.75439453 C79.31073464 242.86030148 80.97742751 241.96712019 82.64453125 241.07470703 C83.52882812 240.59936523 84.413125 240.12402344 85.32421875 239.63427734 C90.40787476 236.92170328 95.52843871 234.28012082 100.64453125 231.62939453 C108.69570623 227.44983938 116.73475988 223.24884644 124.75512695 219.01049805 C130.57723869 215.93958206 136.4239764 212.91796958 142.27514648 209.90283203 C147.90835002 206.99766639 153.52813587 204.06689951 159.14453125 201.12939453 C160.46565918 200.44151855 160.46565918 200.44151855 161.81347656 199.73974609 C173.90148877 193.61105448 173.90148877 193.61105448 182.14453125 183.12939453 C182.51817771 177.52469762 182.35314123 173.9423095 179.14453125 169.12939453 C174.27324958 164.54195132 168.90197483 161.69688567 162.95703125 158.69189453 C160.8853984 157.62812803 158.81378459 156.56432444 156.7421875 155.50048828 C155.6608252 154.9486084 154.57946289 154.39672852 153.46533203 153.828125 C147.92847373 150.9957871 142.41325601 148.12185316 136.89453125 145.25439453 C134.61345092 144.07177555 132.33219952 142.88948646 130.05078125 141.70751953 C128.34341797 140.82290039 128.34341797 140.82290039 126.6015625 139.92041016 C125.46074219 139.329375 124.31992187 138.73833984 123.14453125 138.12939453 C118.56100549 135.75476565 113.97764649 133.37981564 109.39453125 131.00439453 C108.28311768 130.42842529 107.1717041 129.85245605 106.02661133 129.2590332 C97.61719658 124.89871006 89.21728487 120.52035872 80.82714844 116.12304688 C79.11059439 115.22516198 77.39239258 114.33041845 75.67236328 113.43920898 C73.92471216 112.53365092 72.18113383 111.62020498 70.44091797 110.70043945 C69.56580566 110.24644775 68.69069336 109.79245605 67.7890625 109.32470703 C67.01022705 108.91623535 66.2313916 108.50776367 65.42895508 108.08691406 C56.31754636 104.267854 49.52838987 108.55211202 44.14453125 116.12939453 Z " fill="currentColor" transform="translate(154.85546875,74.87060546875)"></path>
  </symbol>
  <symbol version="1.1" xmlns="http://www.w3.org/2000/svg" viewBox="0 0 512 512" id="twitter">
    <path d="M0 0 C4.00783584 3.10816572 7.68827729 6.57759543 11.33154297 10.09960938 C13.45504662 12.30419248 13.45504662 12.30419248 15.65966797 13.28710938 C38.38178194 10.027216 60.88912657 -0.45428796 80.65966797 -11.71289062 C82.43307178 -6.39267919 78.9765277 -1.57170783 76.65966797 3.28710938 C70.75794351 14.70129562 63.67492708 24.37735679 54.65966797 33.53710938 C54.18561523 34.02066895 53.7115625 34.50422852 53.22314453 35.00244141 C49.33796077 38.85201757 45.0908902 42.09021872 40.65966797 45.28710938 C56.3398732 42.43005162 71.19357683 38.42539892 86.21875 33.12158203 C89.33851697 32.05503237 92.47753748 31.14774106 95.65966797 30.28710938 C94.20329 34.57709229 91.93420705 37.88753706 89.15966797 41.41210938 C88.50188354 42.25708984 88.50188354 42.25708984 87.83081055 43.11914062 C81.9169848 50.62073323 75.42200176 57.54574406 68.65966797 64.28710938 C67.85529297 65.12628906 67.05091797 65.96546875 66.22216797 66.83007812 C65.37654297 67.70277344 64.53091797 68.57546875 63.65966797 69.47460938 C62.83466797 70.33441406 62.00966797 71.19421875 61.15966797 72.08007812 C59.03264957 74.22533011 57.00974073 75.69504347 54.42578125 77.31689453 C47.39189426 81.75265309 47.39189426 81.75265309 43.56494141 88.8581543 C43.31079712 92.32420847 43.24855157 95.62152692 43.42446899 99.08416748 C43.57566575 102.10667905 43.57740116 105.12448743 43.58961487 108.15023804 C43.59724619 109.68253782 43.61207279 111.21481888 43.63414001 112.74697876 C44.53732505 180.84095863 10.56763722 252.55199081 -34.34033203 302.28710938 C-34.89188965 302.90038086 -35.44344727 303.51365234 -36.01171875 304.14550781 C-48.08581441 317.50364693 -60.90000057 329.52134324 -75.34033203 340.28710938 C-75.9898584 340.77179688 -76.63938477 341.25648438 -77.30859375 341.75585938 C-123.79401696 376.14141683 -182.44720589 397.2238672 -240.47314453 397.49023438 C-241.50020508 397.49724869 -242.52726563 397.504263 -243.58544922 397.51148987 C-246.87878863 397.52888887 -250.17194836 397.53534135 -253.46533203 397.53710938 C-254.58937439 397.53778412 -255.71341675 397.53845886 -256.871521 397.53915405 C-272.89778527 397.52384133 -288.54418877 397.24924433 -304.34033203 394.28710938 C-305.32420898 394.11018555 -306.30808594 393.93326172 -307.32177734 393.75097656 C-321.56370521 391.14393381 -335.54701412 387.68629847 -349.34033203 383.28710938 C-350.6179541 382.88032959 -350.6179541 382.88032959 -351.92138672 382.46533203 C-374.47169183 375.12228829 -396.74381129 364.68063694 -416.34033203 351.28710938 C-416.01033203 350.62710937 -415.68033203 349.96710938 -415.34033203 349.28710938 C-414.34175171 349.39104004 -414.34175171 349.39104004 -413.32299805 349.49707031 C-360.80227105 354.66048299 -306.49391492 340.37599801 -264.34033203 308.28710938 C-264.91775146 308.1973584 -265.4951709 308.10760742 -266.09008789 308.01513672 C-288.80632117 304.40195749 -308.54096778 298.5158159 -326.34033203 283.28710938 C-327.13826172 282.62195313 -327.93619141 281.95679688 -328.75830078 281.27148438 C-342.35886034 269.54759117 -354.24261461 253.79046081 -359.34033203 236.28710938 C-359.34033203 235.29710937 -359.34033203 234.30710937 -359.34033203 233.28710938 C-358.64810547 233.35929688 -357.95587891 233.43148437 -357.24267578 233.50585938 C-343.67459183 234.79295034 -330.76591096 234.4199673 -317.34033203 232.28710938 C-319.06316406 231.65095703 -319.06316406 231.65095703 -320.82080078 231.00195312 C-350.87652702 219.73389797 -373.63279582 201.97266145 -387.55126953 172.40429688 C-394.00554169 157.99682827 -396.85204707 143.06498976 -396.34033203 127.28710938 C-391.99707066 128.66488111 -387.89025928 130.34323588 -383.71533203 132.16210938 C-374.1200865 136.17202599 -362.79755781 139.28710938 -352.34033203 139.28710938 C-353.15115234 138.64386719 -353.96197266 138.000625 -354.79736328 137.33789062 C-377.42273198 119.03128532 -392.10181778 94.49513126 -395.34033203 65.28710938 C-396.96778748 42.35614931 -393.74555479 20.04764121 -381.34033203 0.28710938 C-377.5920589 1.53653375 -376.73268028 3.04823888 -374.33251953 6.15429688 C-369.41734556 12.30571759 -364.0575945 17.86664408 -358.46533203 23.41210938 C-357.54880859 24.33636719 -356.63228516 25.260625 -355.68798828 26.21289062 C-349.54978638 32.33382614 -343.14241047 37.91805308 -336.34033203 43.28710938 C-335.74865234 43.76374023 -335.15697266 44.24037109 -334.54736328 44.73144531 C-285.47713357 84.19958165 -227.37928691 103.41023359 -165.34033203 109.28710938 C-165.48108154 108.53905029 -165.62183105 107.79099121 -165.7668457 107.02026367 C-166.96413161 100.32781008 -167.69809202 93.89647917 -167.65283203 87.09960938 C-167.64546021 85.75068604 -167.64546021 85.75068604 -167.63793945 84.37451172 C-167.13540836 55.20709176 -155.04172549 29.32755845 -134.41308594 8.94213867 C-98.64721644 -25.17926378 -39.99934412 -29.04305353 0 0 Z " fill="currentColor" transform="translate(416.34033203125,66.712890625)"></path>
  </symbol>
</svg>