<svg width="0" height="0" class="hidden">
  <symbol version="1.1" xmlns="http://www.w3.org/2000/svg" viewBox="0 0 512 512" id="up-arrow">
    <path d="M0 0 C5.47414199 3.13916987 9.64539979 7.36459326 14.07305908 11.8190918 C15.26694595 13.00829869 15.26694595 13.00829869 16.48495173 14.22152996 C19.14741288 16.87602165 21.8026775 19.53759541 24.45800781 22.19921875 C26.36654035 24.10504101 28.27545824 26.01047006 30.18484497 27.91543579 C34.82918395 32.55089053 39.46811076 37.19172504 44.10510734 41.83452344 C47.87320395 45.60713925 51.64325109 49.37779547 55.41469574 53.14706421 C55.95172544 53.68378744 56.48875513 54.22051067 57.04205845 54.77349824 C58.13305132 55.86385165 59.22404867 56.95420057 60.31505045 58.04454505 C70.53974166 68.26353609 80.75829859 78.48864346 90.97476301 88.71585834 C99.74272632 97.49276199 108.5159273 106.26440152 117.29296875 115.03222656 C127.48701905 125.21557751 137.67782188 135.40216023 147.86345172 145.59393406 C148.94915272 146.68027216 150.03485791 147.76660609 151.12056732 148.85293579 C151.92184638 149.65467768 151.92184638 149.65467768 152.7393129 150.47261637 C156.50567186 154.2407029 160.27434809 158.00646218 164.04392242 161.77133179 C168.63552263 166.35732712 173.22355109 170.94686 177.80701593 175.54098678 C180.14601109 177.88524316 182.48711718 180.22731963 184.83150864 182.56618118 C187.37060587 185.09983944 189.90350358 187.63953504 192.43487549 190.1809082 C193.55226384 191.29160439 193.55226384 191.29160439 194.69222569 192.42473888 C195.36828634 193.10601502 196.04434699 193.78729116 196.74089432 194.48921204 C197.32620839 195.07485082 197.91152247 195.6604896 198.51457334 196.26387501 C202.46346925 200.87923372 202.42702485 205.20222311 202.3125 211.0859375 C201.74574926 216.37088815 199.37814183 218.87749177 195.38754272 222.12786865 C191.14349695 224.47334789 188.17779436 224.54145266 183.42431641 224.45410156 C182.58463318 224.45468567 181.74494995 224.45526978 180.87982178 224.45587158 C178.1199732 224.45309739 175.36122107 224.4220375 172.6015625 224.390625 C170.68200266 224.38316023 168.76243518 224.37746841 166.84286499 224.37347412 C161.80225408 224.35823638 156.76210768 224.31897054 151.72167969 224.2746582 C146.57363162 224.23366539 141.42550815 224.21545454 136.27734375 224.1953125 C126.18469228 224.15247454 116.09238484 224.08424569 106 224 C106.00368717 224.8566091 106.00737434 225.71321819 106.01117325 226.59578514 C106.09960371 247.4622576 106.16574827 268.32869766 106.20724869 289.19531822 C106.22785267 299.28636795 106.25593187 309.37729241 106.30175781 319.46826172 C106.34169186 328.26603488 106.36744854 337.0637173 106.37635398 345.86157858 C106.38155761 350.5177615 106.3937428 355.17368486 106.42292023 359.82978439 C106.45019321 364.21777925 106.45842112 368.60540911 106.45243073 372.99348068 C106.45352567 374.59863269 106.46140861 376.20379767 106.4768219 377.80887604 C106.58009151 389.12377273 105.73625975 398.86761582 97.703125 407.46875 C90.91415472 413.57259484 83.79796401 416.24349666 74.66412354 416.26742554 C73.94734743 416.27195665 73.23057132 416.27648776 72.49207473 416.28115618 C70.10174641 416.29376792 67.71164687 416.29218192 65.32128906 416.29052734 C63.60265817 416.29651468 61.88402996 416.3033207 60.16540527 416.31088257 C55.50406635 416.32853049 50.84280088 416.33323749 46.18143177 416.33451414 C43.26630963 416.33593717 40.35120608 416.34020967 37.43608856 416.34550858 C27.25783607 416.364006 17.07963593 416.37217969 6.90136719 416.37060547 C-2.57237923 416.36940467 -12.0458976 416.39049566 -21.51958632 416.4220928 C-29.66418072 416.44828484 -37.80870078 416.45897151 -45.95333695 416.45769465 C-50.81284242 416.45718581 -55.67214523 416.46282569 -60.53160858 416.48405075 C-65.10520906 416.50348209 -69.67841463 416.50352426 -74.25202942 416.48901749 C-75.9248996 416.48693424 -77.59779481 416.49160128 -79.27062225 416.5037384 C-90.69504209 416.58121888 -100.71111559 415.88242506 -109.46875 407.703125 C-115.49206282 401.00372605 -118.25400095 393.92663642 -118.24050903 384.90054321 C-118.24221788 384.20937987 -118.24392673 383.51821652 -118.24568737 382.80610883 C-118.2489671 380.5029561 -118.23800386 378.2000983 -118.22705078 375.89697266 C-118.22648634 374.24093635 -118.22680387 372.58489954 -118.22793579 370.92886353 C-118.22850901 366.44171461 -118.21675959 361.95467288 -118.20278788 357.46754885 C-118.19027548 352.77503282 -118.18910961 348.08251427 -118.18673706 343.38998413 C-118.18052379 334.50783568 -118.16411503 325.62573654 -118.14403808 316.74360979 C-118.12167433 306.63000614 -118.11068445 296.51640013 -118.10064721 286.40277791 C-118.07974869 265.60182444 -118.04457566 244.80091533 -118 224 C-119.06409088 224.00888245 -120.12818176 224.01776489 -121.22451782 224.0269165 C-131.25899945 224.10804948 -141.29341442 224.16798808 -151.3281498 224.20724869 C-156.48697214 224.22811166 -161.64552942 224.25640597 -166.80419922 224.30175781 C-171.78385392 224.34526124 -176.76325386 224.36914681 -181.74308395 224.37950897 C-183.64168686 224.38689224 -185.54027602 224.40131014 -187.43877029 224.42292023 C-190.10092403 224.45201408 -192.76202893 224.45595352 -195.42431641 224.45410156 C-196.20690826 224.46848267 -196.98950012 224.48286377 -197.79580688 224.49768066 C-202.98692729 224.45867869 -205.85376005 223.37714768 -210 220 C-214.41415841 215.35351746 -214.46758261 211.11206934 -214.53125 205 C-213.26194443 197.83215676 -207.15621385 192.86585992 -202.20782471 187.93367004 C-201.41784238 187.13845103 -200.62786005 186.34323202 -199.81393886 185.52391547 C-197.16879715 182.86378649 -194.5165689 180.21084063 -191.86425781 177.55786133 C-189.96494744 175.6509288 -188.06601951 173.74362189 -186.16751099 171.83589172 C-181.01164974 166.65722578 -175.84837666 161.48599227 -170.68363285 156.31618714 C-167.45744729 153.0867405 -164.23289655 149.85566496 -161.00868988 146.62424278 C-152.07662484 137.67262085 -143.1429894 128.72257483 -134.20259476 119.77927113 C-133.63103115 119.20751995 -133.05946755 118.63576878 -132.47058384 118.04669182 C-131.31196451 116.88770624 -130.15334391 115.72872194 -128.99472204 114.5697389 C-128.13205143 113.70679407 -128.13205143 113.70679407 -127.25195312 112.82641602 C-126.67613435 112.25041669 -126.10031557 111.67441737 -125.50704774 111.08096351 C-116.17192968 101.7423019 -106.84861631 92.39195077 -97.53043118 83.03639618 C-87.95717496 73.42505601 -78.37458642 63.82310532 -68.78241992 54.23063678 C-63.39940652 48.84703897 -58.02041059 43.45956125 -52.65158844 38.06180763 C-48.08150308 33.46720774 -43.50289505 28.88131831 -38.91301873 24.30648545 C-36.57249483 21.97312907 -34.23756546 19.634626 -31.91064072 17.28769684 C-29.38519503 14.74186832 -26.84482242 12.211928 -24.30010986 9.68537903 C-23.20689072 8.57235994 -23.20689072 8.57235994 -22.09158635 7.43685561 C-15.46902391 0.92179917 -9.35003737 -2.26210582 0 0 Z " fill="currentColor" transform="translate(262,32)"></path>
  </symbol>
</svg>